<svg xmlns="http://www.w3.org/2000/svg" viewBox="0 0 391.35 379.01"><defs><style>.cls-1{fill:#81a534;}.cls-2{fill:#fff;stroke:#5cbebc;stroke-linecap:round;stroke-linejoin:round;stroke-width:3px;}.cls-3{fill:#b4c828;}.cls-4{fill:#6e892b;}.cls-5{fill:#f4e9e1;}.cls-6{fill:#647728;}.cls-7{fill:#7b9930;}</style></defs><title>Crocodile</title><g id="Calque_7" data-name="Calque 7"><path class="cls-1" d="M105.65,173.37c-39.83,49.83-33.37,154.5,48.73,151.17,26.77,4.08,59.77.08,59.77.08,17.5,4,131.5-20.74,108.5-154.74-2-18-9.17-10.67-9.17-10.67-16.67,18-18,51-41,52.33-3.67-29-54.75-69.95-54.75-69.95Z"/><path class="cls-1" d="M149.15,67.87c14.18-15.79,19.5-30,47,11s37,44,16.5,69.5-32,46.5-51,46-6-17.5-56-21c-7.5-1-16.32-9.23-10.32-18.23s-26.18-4.52-5.68-30.52,14-22.75,12-34.75,12-44.5,25.5-34.5S145.16,72.32,149.15,67.87Z"/><circle class="cls-2" cx="168.09" cy="88.92" r="15"/><circle class="cls-2" cx="124.5" cy="88.92" r="15"/><circle cx="124.5" cy="88.92" r="1.78"/><circle cx="168.09" cy="88.92" r="1.78"/><ellipse class="cls-3" cx="114.12" cy="138.86" rx="4.29" ry="2.01" transform="translate(-60.78 97.44) rotate(-37.26)"/><ellipse class="cls-3" cx="95.33" cy="135.5" rx="2.01" ry="3.35" transform="translate(-59.35 76.15) rotate(-33.88)"/><path class="cls-4" d="M223.7,129.62,236.91,128l2.57,25.57,16.68-1.7s2.5,20,4,27.81l10.46-1.1,1.83,32.92c-8-25.67-54.75-69.95-54.75-69.95A43,43,0,0,0,223.7,129.62Z"/><path class="cls-4" d="M124.5,135.5s-7.71-23.52-27-16.34C107.65,113.12,119.16,112.48,124.5,135.5Z"/><path class="cls-4" d="M191.15,116.12c8-10.75,14-17,5-37.25C203.15,91.2,209.15,101.54,191.15,116.12Z"/><path class="cls-4" d="M280.65,218.53c4-4.93,6.55-6.86,10.3,6.1,0,0-4.33,2.8-8.17,2.13Z"/><path class="cls-4" d="M296.95,214.78s-2.77-22.2,2.27-17.8,5.84,2.66,5.84,2.66Z"/><path class="cls-4" d="M309,189.15s-.38-12.73.88-12.55,3.75,2,3.75,2Z"/><path class="cls-4" d="M272.49,211.54c9,9.5,18.12,32.33,16.89,49.33C295.45,224.87,272.49,211.54,272.49,211.54Z"/><path class="cls-5" d="M88.79,147.33s-6.38,14.55-2.13,12.8,8.68-8.85,8.68-8.85S95.33,150.5,88.79,147.33Z"/><path class="cls-5" d="M119.16,159c1.46,5.43,4.18,9.31,5.33,8.09s1.78-12.72,1.78-12.72A19,19,0,0,1,119.16,159Z"/><path class="cls-5" d="M136.4,148.57c1.51,10.05,2.66,10.91,10.21.73A15,15,0,0,0,136.4,148.57Z"/><path class="cls-5" d="M159.19,155.14c-1.54,13.23.33,17,8.9,2.86C163.9,157.87,159.19,155.14,159.19,155.14Z"/><path class="cls-3" d="M217.74,238.4c.23-27.53-9.3-41.64-51.43-41.53-35.87-1.08-57.52,9.93-53.82,48,2.67,27.5,13.79,50,52.54,50C198.39,294.85,208.44,292.87,217.74,238.4Z"/><path class="cls-4" d="M112.38,291.76c-17.15,18,18.47,37.6,26.93,38.22,0,0,.55-7.87-1.11-13.23l9.82,7.51.44-12.09s8.3,1,9.51,1.95C160.26,301.64,139.33,263.52,112.38,291.76Z"/><path class="cls-4" d="M217,290.34c17.9,17.22-16.84,38.35-25.27,39.33,0,0-.89-7.84.54-13.26l-9.49,7.92-1-12.06s-8.25,1.32-9.42,2.35C169.58,302.27,188.86,263.28,217,290.34Z"/><path class="cls-4" d="M95.33,151.27c10.82,5.26,12.85,5.26,18.79,5.26,6.2,0,9.62-4.77,14.12-8.16,15.1-11.36,29.12,2.81,37.58,5.67,6.17,2.08,12.83,4.5,21.83-7.17-8,15-20.75,13-32.25,6.25s-22.75-6.5-29.13,1.25-20.94,7.65-30.94-3.1"/><path class="cls-4" d="M105.65,173.37c20.5,5.25,24.73,6,30.74,10s11.75,15.86,24.51,14.75,42.92-19.81,56.84-56.53c-19.65,32.52-38.82,49.09-56.09,52.78C143.25,198.3,153.09,172.87,105.65,173.37Z"/><path class="cls-6" d="M226.83,132.86c5.62,16.67,11.12,30.41,10.7,23.88S234.79,132,234.79,132Z"/><path class="cls-6" d="M246.21,155.84c5.62,16.67,11.12,30.41,10.7,23.88S254.16,155,254.16,155Z"/><path class="cls-6" d="M262.36,182.12c4.13,12.24,8.16,22.33,7.86,17.53s-2-18.17-2-18.17Z"/><path class="cls-7" d="M292.7,232.73c3.37,15,5.08,22.5,1.33,48.25,33.5-46,26.75-89.55,26.75-89.55C311.54,221.73,292.7,232.73,292.7,232.73Z"/></g></svg>