<svg xmlns="http://www.w3.org/2000/svg" viewBox="0 0 395.11 379.01"><defs><style>.cls-1{fill:#edaf2b;}.cls-2{fill:#dc9517;}.cls-3{fill:#d68518;}.cls-4{fill:#fed16f;}.cls-5{fill:#fff;stroke:#5cbebc;stroke-linecap:round;stroke-linejoin:round;stroke-width:3px;}.cls-6{fill:none;stroke:#dc9517;stroke-miterlimit:10;stroke-width:2px;}</style></defs><title>Dromadaire</title><g id="Calque_6" data-name="Calque 6"><path class="cls-1" d="M66.12,203.67c-22,23.75,1.5,51.5-32.25,93-21.25-.5-3.25,28.5-9.75,35.5,19-13.5,16.25-32,13-33.75,15.5-21,27.5-49.25,26-61.25,6.25,36.5,6.5,84.5,8,85.75s5.25,2,5.5-2.5-2-61.25,4.25-52.5.73,47.69,7,48.28c3,.28-.46-8.23,3.54-46.23,0-5,10.3-2.32,29.13-2.32,10,0,14.08,4.27,14.83,21.27s-1.31,46.21,3.76,46.3c2.51,0,2.63,3.26,3-54.3,0-9,9.25-16.25,9.25,1.5s-1.75,43.5,2.5,42.5,1.75,11.5,2.5-57c0-13.75,10.25-16.5,17-12.75s37.5,10.25,63-34.5l5.5-22.5-50.25-55.25c6,53.25-2,70.75-27.25,77.75s-29.5-42.25-44.5-52-32.25-4-36.5,18.25S74.12,197.17,66.12,203.67Z"/><path class="cls-2" d="M147.08,271.57c4,0,3.6,47.48,3.91,51.3.3,4.69,5.43,5.88,5.43,0,0-7.63-.58-57.35,0-58.87A19,19,0,0,1,147.08,271.57Z"/><path class="cls-2" d="M186.88,70c-12.1-18.69-25.43-20.69-27.43-26s-6.68,70,19.32,68.66S186.88,70,186.88,70Z"/><path class="cls-3" d="M276.78,55.43c-8.67,14.08-8,30.49,0,30.28s7.57-15.14,7.57-15.14Z"/><path class="cls-4" d="M191.89,145c-2.17,17.08-7.17,22.75-7.17,22.75s5.33-8.07,5.33-3.33c0,12.33-8,22.33-8,22.33,4-2.33,7-4.33,7-4.33-2.33,9-9,17.67-9,17.67s3.83,1.33,5.92,0c0,4.59-2.11,10.37-5.92,13C194.37,200.82,199.58,178.82,191.89,145Z"/><path class="cls-4" d="M229.78,238.08s.9,4.57-2,10.92c0,0,13-8.33,13.31-16.5,5,2.17,3.56,12.17,3.56,12.17s10.14-4,12.14-24.33c0,0-13,0-20.18-5.74-8.9,22.05-17,30.23-29.45,37.56C217,249.16,229.78,238.08,229.78,238.08Z"/><path class="cls-1" d="M339.74,157.17s2.37,10.5.37,18,4.5,13,8.5,15.5,3.31.63,9.24-.87,7.76-4.13,10.76-21.63-14-16.5-23.5-25.25c0,0,13.67-15.58,3-21.58s-22.24-43-52.24-48.35-39.09-26.32-59.76-25-58,15.78-57.33,42.89c.48,19.7,3.45,43.85,15.51,61.42a52.54,52.54,0,0,0,17.84,16.46c27.32,15.23.65,52.56,42.65,52.56s73.54-4.67,82.77-4,10.56,24.67,19.9,9.33,0-37.93,0-37.93"/><path class="cls-2" d="M332.12,130.88c-11.33-11.54-34-3.71-17.33,12,7.33,0,19.16-5.58,27.25,8.42S332.12,130.88,332.12,130.88Z"/><path class="cls-3" d="M344.12,154.69c-2.37-4.82,2.1-12.47,9.39-23.8s-16.33-15.89-21.39,0"/><circle class="cls-5" cx="240.87" cy="110.89" r="15.77"/><circle cx="240.87" cy="110.89" r="1.4"/><path class="cls-6" d="M258.12,74c-17.33.67-40.67-8.67-46.67,18.67"/><path class="cls-3" d="M341.61,184c-1,11.63-9.5,13.63-9.5,13.63,8,6,16,27.5,19,23s5.66-15.66,2-31C348.62,190.67,341.61,184,341.61,184Z"/><path class="cls-2" d="M314.78,142.92c-2.08,11.75,10.59,28.78,29.34,11.76-7.25-6.76-21.5-3.51-25.5-5.76A7,7,0,0,1,314.78,142.92Z"/><path class="cls-6" d="M341.61,184c-2.75,12.88-10.5,18.38-32.75,16.13-3-1-10.5-16.13-10.5-16.13"/><path class="cls-2" d="M195.3,174.1c.26-8.47.13-14.11-2.28-23.7,0,0,6.59,12.1,22.06,22.43,9.48,6.33,12.81,20.34,13.22,29.84a17.52,17.52,0,0,0,7.58,14,36.91,36.91,0,0,1-3.87,8.26C206.37,204.49,195.3,174.1,195.3,174.1Z"/><path class="cls-2" d="M79.81,267c5.73,1.13,6.93,2.36,14.17.29-5.52,2-3.75,39.55-4,42.84s.11,7.21-2.14,7.21c-2.47,0-3.38-1.56-3.55-5.66C84.09,306.33,84,272.4,79.81,267Z"/><path class="cls-2" d="M123.37,179c-1.27-12.87-23.23-14.18-23.5-6.56-.19,5.22,6.23,9.9,11.75,11.56C117.54,185.82,124,185.32,123.37,179Z"/><path class="cls-2" d="M37.12,298.42c-5.27-5.27-15.2,0-14,9.32s4.23,21.62,1,24.43C37.87,323.74,43.7,305,37.12,298.42Z"/><path class="cls-2" d="M344.12,154.69c3.46,1.08,10.21-5.32,1.82-11C343.45,146.91,342.62,154.21,344.12,154.69Z"/></g></svg>