<svg xmlns="http://www.w3.org/2000/svg" viewBox="0 0 395.11 379.01"><defs><style>.cls-1,.cls-3{fill:#fff;}.cls-1{stroke:#5cbebc;stroke-linecap:round;stroke-linejoin:round;stroke-width:3px;}.cls-2{fill:#ede659;}.cls-4{fill:#edaf2b;}.cls-5{fill:#edbc6b;}</style></defs><title>Pinguin</title><g id="Calque_3" data-name="Calque 3"><path d="M131.76,208.11c-29.5,49-23.5,159,45.93,152,26.36-2.66,16.08.23,41-.57,63.61-2.05,65.2-115.49,36-154.17,60.08,44.67,20.77,114.39,31.09,109.24,16-8,50.5-75.5-4.59-125.74-70.37-64.16-14.62-81.57-27.5-123-7.3-23.5-56.76-29.13-56.76-29.13-29,.51-56.4,9.67-62.57,25.34-10,27.67,16,48.33,0,81.67S55.1,216.28,87.76,297.61c6.76,18.53,13.4,20,11,5C95.91,284.81,85.76,239.11,131.76,208.11Z"/><circle class="cls-1" cx="166.84" cy="81.38" r="15"/><circle cx="166.84" cy="81.38" r="1.78"/><circle class="cls-1" cx="222.17" cy="81.38" r="15"/><circle cx="222.17" cy="81.38" r="1.78"/><path class="cls-2" d="M192.22,62.9c-6.35-18.34-42-51.14-76.8-46.15,17,2.15,33.06,5,53.15,21.95-39.18-16-78.17-3-78.17-3,30.86-3.8,41.05-5.78,76.65,4.8C128.86,33.36,99,45.54,99,45.54c32.28-5.48,51.53-5.53,67-2.58-26.83.36-61.62,18.75-63.72,50.66,5.12-18,16.11-35.75,39.37-40.86C118,69.28,112.79,84,112.57,94.11c7.7-21.23,18.08-32.73,37.57-39.2S192.22,62.9,192.22,62.9Z"/><path class="cls-3" d="M213.3,350.21c-9.74-.18-19.09-1.31-35.11.87-31.28,1.56-62.73-50.53-27.18-117.23,22.2-31.75,67.68-29,85.29.61,22.19,32.39,18.87,115-23,115.75"/><path class="cls-2" d="M200.17,63.25c6.23-18.39,41.64-51.42,76.48-46.67-17,2.27-33,5.19-53,22.31,39.07-16.24,78.15-3.56,78.15-3.56-30.88-3.59-41.09-5.5-76.62,5.32,38.15-7.39,68.13,4.59,68.13,4.59-32.32-5.26-51.56-5.18-67-2.12,26.83.18,61.75,18.33,64.06,50.23-5.24-17.95-16.36-35.64-39.65-40.59,23.65,16.35,29,31,29.28,41.15C272.2,72.73,261.74,61.31,242.2,55S200.17,63.25,200.17,63.25Z"/><path class="cls-4" d="M185.5,99.79c-17,7.06-16.9,9.88-4,12.34s9.72,7.9,13.81,8c4.57.09,2.53-5,8.88-6.54a64,64,0,0,1,9.53-1.75c6.14-1.23,2.61-7.52-13.84-13.2C194.38,96.17,190.33,97.79,185.5,99.79Z"/><ellipse class="cls-5" cx="184.95" cy="106.36" rx="2.22" ry="0.92" transform="translate(-28.4 106.72) rotate(-30)"/><ellipse class="cls-5" cx="203.59" cy="106.36" rx="0.92" ry="2.22" transform="matrix(0.5, -0.87, 0.87, 0.5, 9.69, 229.5)"/><path class="cls-4" d="M185.53,356.87c-9.55-11.67-46-9.55-36.78,1.77s17,6.19,28.65,5.66C193,363.59,185.53,356.87,185.53,356.87Z"/><path class="cls-4" d="M198.91,356.87c9.55-11.67,46-9.55,36.78,1.77s-17,6.19-28.65,5.66C191.49,363.59,198.91,356.87,198.91,356.87Z"/></g></svg>