<svg xmlns="http://www.w3.org/2000/svg" viewBox="0 0 395.11 379.01"><defs><style>.cls-1{fill:#d6114c;}.cls-2{fill:#fff;stroke:#5cbebc;stroke-linecap:round;stroke-linejoin:round;stroke-width:3px;}.cls-3{fill:#f29cb5;}.cls-4{fill:#bc134f;}</style></defs><title>Poulpe</title><g id="Calque_4" data-name="Calque 4"><path class="cls-1" d="M171.87,237.56c-26.5,19.67,4.5,79.33-98,86.67,96.19,33,104.81-29,142.81-85.33,16,36-26,86.33,25,140.12-14.67-69.12,32.67-88.45,13-142.78,23,43,81.13,18.88,97.62,89,19.39-81.76-61.62-87-77.88-118,40.79,17.5,75.72-24.6,120.66,20-7.59-58-64.91-54-115.51-47-43.1,6-17.9-61-17.9-61S304,20.41,248.35,4.22C164-19.78,152.88,64,176.74,116c10.67,23.22,8.35,71.17-22.77,92.83-25.5,17.33-41,22.35-55.23,21.89-31.18-1-37-66.57-94-41.28-10.5,4.28-2,5.28,10.5,7.28,36.75,8,46.16,69.72,91.73,67.72C131.13,262.05,141,234.89,171.87,237.56Z"/><circle class="cls-2" cx="185.09" cy="128.66" r="15"/><circle cx="185.09" cy="128.66" r="1.78"/><circle class="cls-2" cx="234.4" cy="130.43" r="15"/><circle cx="234.4" cy="130.43" r="1.78"/><path class="cls-3" d="M243,11.56C276,21.67,271.07,60.22,268.4,66.22s-17.08,13.33-20.88-4.67-5.12-28-13.79-33.33S225.51,6.22,243,11.56Z"/><path class="cls-4" d="M6.78,195.33c22.12-7.44,28.88-11.25,75.46,40.89,23.71,25.5,45-11.41,89.63,1.33-40.9,15.17-50.4,31.28-76.9,25.78C61.8,258.84,47.24,197.39,6.78,195.33Z"/><path class="cls-4" d="M274.45,207.22c38.29,17.33,76.7-23.67,120.66,20-4.46-17.49-34.37-32.69-54-32S306.16,211.22,274.45,207.22Z"/></g></svg>