<svg xmlns="http://www.w3.org/2000/svg" viewBox="0 0 395.11 379.01"><defs><style>.cls-1{fill:#d67012;}.cls-2{fill:#f4e9e1;}.cls-3{fill:#6c3612;}.cls-4,.cls-5{fill:#fff;}.cls-5{stroke:#5cbebc;stroke-linecap:round;stroke-linejoin:round;stroke-width:3px;}.cls-6{fill:#c46316;}</style></defs><title>Renard</title><g id="Calque_5" data-name="Calque 5"><path class="cls-1" d="M178.66,69c-14.85-23.52-34.19-34.18-34.19-34.18-9.33,31.33-2.52,64.94-2.52,64.94l25.86-8.94Z"/><path class="cls-1" d="M263.07,69c14.85-23.52,34.19-34.18,34.19-34.18,9.33,31.33,2.52,64.94,2.52,64.94l-25.86-8.94Z"/><path class="cls-2" d="M131.74,115c26.75,15.57,32.06,49.75,93.56,49.5,55.5-.23,61.16-43.75,81.83-51L242.3,81.22l-53.85-2Z"/><path class="cls-1" d="M115.14,108.18c54.33-6,70.46-72.1,108.67-66,45,7.18,73.43,70.41,99.33,61.33-22,19.33-30,15.33-54,.67s-37.33-9.84-37.67,14c-.34,24.3,1.67,30,1.67,30l-8,4.67-6-4.67c2-57.33-22.67-60.67-41.33-44.67S140.47,124.18,115.14,108.18Z"/><path class="cls-1" d="M157.82,237.42c-39.33-20.67-67.35,90.09-98,91.09,41,31.67,93,28,123,0C149.47,294.84,157.82,237.42,157.82,237.42Z"/><path class="cls-2" d="M84.71,307.78,105.3,302l-6.55,18.52,23.55-5-21.55,16.67,26.55,6-19.9,11.4C80.05,346,59.8,328.51,59.8,328.51,72.39,326.84,84.71,307.78,84.71,307.78Z"/><path class="cls-1" d="M182.8,156.93c-20.33,53.91-69,181.24,38.67,181.25s66.34-150.17,41-182.58C227,175,182.8,156.93,182.8,156.93Z"/><path class="cls-3" d="M180.5,309.09c-3-11.24,13.8-14.09,15.55,0s15.74,40,6.91,39.07C197.14,350.18,188.87,340.66,180.5,309.09Z"/><path class="cls-3" d="M262.57,308.09c3-11.24-13.8-14.09-15.55,0s-15.74,40-6.91,39.07C245.93,349.18,254.2,339.66,262.57,308.09Z"/><path d="M150.8,93.27s-8.38-16.31-5-43l25.42,25.09L150.8,93.27"/><path d="M295.73,92.78a233.06,233.06,0,0,0-.78-49.27L273.72,72.28l22,20.5"/><path class="cls-4" d="M190.28,159.51c-13.32,47.9,5.15,88.15,32.67,96,34.18-12.91,44.24-60,31-96C226.33,170,190.28,159.51,190.28,159.51Z"/><path d="M219.14,148.18c7-6.33,14,0,14,0l-8,4.67Z"/><circle class="cls-5" cx="254.93" cy="124.54" r="15"/><circle class="cls-5" cx="190.23" cy="126.31" r="15"/><circle cx="190.23" cy="126.31" r="1.78"/><circle cx="254.93" cy="124.54" r="1.78"/><path class="cls-6" d="M157.82,237.42c-12,34.95-18.37,66.7,23.13,92.37C140.36,302,157.82,237.42,157.82,237.42Z"/></g></svg>