<svg id="Calque_2" data-name="Calque 2" xmlns="http://www.w3.org/2000/svg" viewBox="0 0 391.35 419.53"><defs><style>.cls-1{fill:#ede659;}.cls-2,.cls-5{fill:#fff;}.cls-2{stroke:#5cbebc;stroke-linecap:round;stroke-linejoin:round;stroke-width:3px;}.cls-3{fill:#d6114c;}.cls-4{fill:#5cbebc;}.cls-6{fill:#edaf2b;}.cls-7{fill:#b2cf67;}</style></defs><title>Toucan</title><path d="M179.22,18.38C161.24-12.75,140,5.09,140,5.09c-19.25-11.5-82.25,50.5-52.25,111-30,1-21.5,114,22.5,136-.5,21,23,62,41.5,52.5-5.5,23,0,28.5,0,28.5-5.5,21.5,8.94,64.5,20.22,49,.78,27.5,24.28,69.5,30.78-2,7.5,4.5,19.5-4,20-57,2.93-41.05,13.84-110.23-14-168.06-13-27-21.47-45.28-21.47-45.28s-25.91-27.73-6-42.15C171.74,62.09,168.69,64.18,179.22,18.38Z"/><path class="cls-1" d="M181.24,67.59c-24.64,11-12.49-30.25-9.17-50,1.67-5.5-33.67-15.33-50.59,1.4-45.17,45.67-24.24,108.6-1.74,122.1,15,9,79.11,25.56,76.81,1.2s-24-60.7-19.14-65A11,11,0,0,0,181.24,67.59Z"/><path class="cls-1" d="M294.91,89.09c-2-22.75-11.84-44.9-32.9-55.24-17.63-8.66-36.77-14.76-82.79-15.46,0,0-3.61,16.06-4.23,19.39S294.91,89.09,294.91,89.09"/><circle class="cls-2" cx="142.74" cy="38.59" r="15"/><circle cx="142.74" cy="38.59" r="1.78"/><path class="cls-3" d="M294.91,88.59c-14.5-31.5-36.31-37.25-43.39-39.7-14.79-5.12-4.22-27.34,17.74-10.8C295.49,57.84,294.91,88.59,294.91,88.59Z"/><path class="cls-4" d="M169.24,287.09V271c-.5-7.39-14.5-10.39-15.5,4.61S155,289.46,155,289.46l4.5-12.28s.38,15.41,3.13,13.78,2.75-10.75,2.75-10.75S169.24,291.09,169.24,287.09Z"/><path class="cls-4" d="M178.94,283.3V269.94c.41-6.13,12-8.62,12.86,3.82s-1,11.51-1,11.51L187,275.08s-.31,12.78-2.59,11.43-2.28-8.92-2.28-8.92S178.94,286.62,178.94,283.3Z"/><path class="cls-5" d="M101.81,47.91c-2.54,19.68,62.67,61.15,85.47,61.83,6.13,13,9.33,31.18,9.33,31.18,1,7.67,1.26,14.79-22.37,14.07-19.67-.6-66.25,1.34-77.5-50.07C88.88,69,101.81,47.91,101.81,47.91Z"/><path class="cls-4" d="M294.91,89.09c-37.17-15.83-113.67-21.5-113.67-21.5-8.66-.33-9.83-9-8.21-18C206.74,52.42,273.12,59.46,294.91,89.09Z"/><path class="cls-6" d="M176.07,32.57c53,7.8,71.37,13.06,77.91,31.18C224.24,53.34,173,49.62,173,49.62,173.64,44,176.07,32.57,176.07,32.57Z"/><path class="cls-7" d="M173,49.62c4.38,12.8,28.47,13.19,79.46,22.59,40.82,9.9,42.42,16.88,42.42,16.88C283.47,70.5,243.91,55.09,173,49.62Z"/></svg>